<?xml version="1.0" encoding="utf-8"?>
<!-- Generator: Adobe Illustrator 16.0.0, SVG Export Plug-In . SVG Version: 6.00 Build 0)  -->
<!DOCTYPE svg PUBLIC "-//W3C//DTD SVG 1.1//EN" "http://www.w3.org/Graphics/SVG/1.1/DTD/svg11.dtd">
<svg version="1.1" id="Layer_1" xmlns="http://www.w3.org/2000/svg" xmlns:xlink="http://www.w3.org/1999/xlink" x="0px" y="0px"
	 width="394.169px" height="376.445px" viewBox="0 0 394.169 376.445" enable-background="new 0 0 394.169 376.445"
	 xml:space="preserve">
<path d="M244.221,313.104c17.513,21.269,43.899,36.881,74.609,43.055v16.451h75.339V248.981H318.83v15.052
	c-6.118-2.956-9.941-7.102-9.948-11.054l0.006-131.34c0-3.958,3.82-8.097,9.948-11.054l-0.006,16.888h75.339L394.166,3.836h-75.338
	L318.83,18.4c-55.644,11.173-97.208,53.452-97.215,103.907l0.006,130.007c-0.006,15.046,3.797,29.316,10.47,42.312 M372.291,25.71
	l0.008,79.888l-31.588-0.003l-0.006-79.895L372.291,25.71z M243.493,252.324V122.308c0-38.654,31.875-71.325,75.341-81.628
	l0.002,46.638c-18.754,5.341-31.815,18.446-31.818,34.325l-0.011,131.334c0.008,15.891,13.039,29.08,31.827,34.408l-0.007,46.61
	C275.352,323.689,243.493,290.981,243.493,252.324z M340.705,270.85l31.586,0.01v79.882l-31.589,0.003L340.705,270.85z"/>
<g>
	<path d="M7.516,0v17.359c91,0.291,170.331,76.674,170.331,170.864S98.516,358.793,7.516,359.09v17.355
		c100-0.294,187.688-84.45,187.688-188.223C195.205,84.444,107.516,0.291,7.516,0z"/>
	<path d="M4.135,35.793c-0.181,0-0.619,0.006-0.619,0.006v16.813c0,0,0.438-0.012,0.619-0.012
		c74.604,0,135.117,60.477,135.117,135.081S78.718,322.761,4.115,322.761c-0.182,0-0.599-0.016-0.599-0.016v16.813
		c0,0,0.438,0.006,0.619,0.006c83.883,0,151.885-68.004,151.885-151.884C156.02,103.794,88.018,35.793,4.135,35.793z"/>
	<path d="M4.135,74.741c-0.181,0-0.619,0.016-0.619,0.016v15.75c0,0,0.438-0.012,0.619-0.012c53.672,0,97.224,43.51,97.224,97.186
		c0,53.672-43.57,97.186-97.244,97.186c-0.182,0-0.599-0.016-0.599-0.016v16.372H0c1.399,0,2.797-0.251,4.209-0.251
		c62.374,0,112.899-50.743,112.899-113.114C117.109,125.484,66.508,74.741,4.135,74.741z"/>
	<path d="M3.516,145.913v84.622c22,0,42.31-18.945,42.31-42.312C45.826,164.856,25.516,145.913,3.516,145.913z"/>
</g>
</svg>
