<?xml version="1.0" encoding="utf-8"?>
<!-- Generator: Adobe Illustrator 16.0.0, SVG Export Plug-In . SVG Version: 6.00 Build 0)  -->
<!DOCTYPE svg PUBLIC "-//W3C//DTD SVG 1.1//EN" "http://www.w3.org/Graphics/SVG/1.1/DTD/svg11.dtd">
<svg version="1.1" id="Layer_1" xmlns="http://www.w3.org/2000/svg" xmlns:xlink="http://www.w3.org/1999/xlink" x="0px" y="0px"
	 width="753.53px" height="120.446px" viewBox="0 0 753.53 120.446" enable-background="new 0 0 753.53 120.446"
	 xml:space="preserve">
<path fill="#FFFFFF" d="M77.847,100.22c5.583,6.779,13.993,11.756,23.782,13.724v5.244h24.015V79.78h-24.015v4.798
	c-1.95-0.942-3.169-2.264-3.171-3.523l0.002-41.865c0-1.262,1.218-2.581,3.171-3.523l-0.002,5.383h24.015l-0.001-39.41h-24.015
	l0.001,4.643C83.892,9.843,70.643,23.319,70.641,39.402l0.002,41.44c-0.002,4.796,1.21,9.345,3.337,13.487 M118.67,8.611
	l0.002,25.465l-10.069-0.001l-0.002-25.467L118.67,8.611z M77.615,80.846V39.402c0-12.321,10.161-22.735,24.016-26.02l0,14.866
	c-5.978,1.702-10.141,5.88-10.142,10.941l-0.003,41.863c0.002,5.065,4.156,9.27,10.145,10.968l-0.002,14.857
	C87.77,103.594,77.615,93.168,77.615,80.846z M108.602,86.751l10.068,0.003v25.463l-10.069,0.001L108.602,86.751z"/>
<g>
	<path fill="#FFFFFF" d="M2.253,0.416v5.533c29,0.093,54.294,24.44,54.294,54.464s-25.294,54.37-54.294,54.465v5.532
		c32-0.094,59.827-26.919,59.827-59.997C62.08,27.333,34.253,0.509,2.253,0.416z"/>
	<path fill="#FFFFFF" d="M1.384,11.825c-0.058,0-0.131,0.002-0.131,0.002v5.359c0,0,0.073-0.004,0.131-0.004
		c23.78,0,43.036,19.277,43.036,43.058s-19.246,43.058-43.026,43.058c-0.058,0-0.141-0.005-0.141-0.005v5.359
		c0,0,0.073,0.002,0.131,0.002c26.738,0,48.414-21.677,48.414-48.414C49.798,33.501,28.123,11.825,1.384,11.825z"/>
	<path fill="#FFFFFF" d="M1.384,24.24c-0.058,0-0.131,0.005-0.131,0.005v5.021c0,0,0.073-0.004,0.131-0.004
		c17.108,0,30.958,13.869,30.958,30.979c0,17.108-13.838,30.979-30.947,30.979c-0.058,0-0.141-0.005-0.141-0.005v5.199H0
		c0.446,0,0.892-0.07,1.342-0.07c19.882,0,36.021-16.17,36.021-36.051C37.362,40.41,21.266,24.24,1.384,24.24z"/>
	<path fill="#FFFFFF" d="M1.253,46.927V73.9c7,0,13.486-6.039,13.486-13.487S8.253,46.927,1.253,46.927z"/>
</g>
<g>
	<path fill="#FFFFFF" d="M150.811,0.998h25.121c9.649,0,17.024,2.69,22.126,8.068c5.1,5.381,7.652,12.894,7.652,22.543v55.398
		c0,11.092-2.69,19.271-8.068,24.538c-5.381,5.27-13.117,7.902-23.208,7.902h-23.624V0.998z M167.78,103.478h7.819
		c4.767,0,8.152-1.19,10.148-3.577c1.997-2.384,2.995-6.127,2.995-11.229V31.609c0-4.658-0.943-8.262-2.828-10.814
		c-1.887-2.55-5.324-3.826-10.314-3.826h-7.819V103.478z"/>
	<path fill="#FFFFFF" d="M220.682,0.998h16.969v16.969h-16.969V0.998z M220.682,35.103h16.969v84.346h-16.969V35.103z"/>
	<path fill="#FFFFFF" d="M282.4,58.726c-0.112-2.883-1.027-5.045-2.745-6.487c-1.721-1.44-3.689-2.163-5.906-2.163
		c-2.662,0-4.715,0.86-6.155,2.578c-1.443,1.722-2.163,3.689-2.163,5.906c0,1.555,0.387,3.078,1.165,4.575
		c0.774,1.497,2.771,2.856,5.989,4.075l9.982,3.993c6.322,2.44,10.673,5.769,13.06,9.981c2.383,4.217,3.577,8.817,3.577,13.809
		c0,3.551-0.64,6.85-1.913,9.898c-1.276,3.052-3.023,5.739-5.241,8.068c-2.22,2.329-4.881,4.159-7.985,5.49
		c-3.106,1.331-6.488,1.996-10.148,1.996c-3.327,0-6.488-0.556-9.482-1.663c-2.995-1.107-5.63-2.717-7.902-4.825
		c-2.274-2.105-4.133-4.741-5.573-7.902c-1.443-3.16-2.22-6.847-2.329-11.062H264.6c0.333,2.329,1.136,4.491,2.413,6.488
		c1.273,1.996,3.52,2.994,6.737,2.994c2.438,0,4.63-0.803,6.571-2.412c1.939-1.606,2.912-3.853,2.912-6.737
		c0-2.329-0.611-4.326-1.83-5.989c-1.222-1.664-3.439-3.104-6.654-4.326l-8.152-2.994c-5.324-1.996-9.511-4.962-12.561-8.9
		c-3.052-3.936-4.575-8.734-4.575-14.391c0-3.548,0.665-6.847,1.996-9.898c1.331-3.049,3.132-5.656,5.407-7.818
		c2.272-2.163,4.908-3.853,7.902-5.074c2.995-1.22,6.21-1.83,9.649-1.83c3.437,0,6.626,0.64,9.566,1.913
		c2.938,1.276,5.461,2.994,7.569,5.157c2.105,2.163,3.769,4.77,4.991,7.819c1.219,3.052,1.83,6.295,1.83,9.731H282.4z"/>
	<path fill="#FFFFFF" d="M310.182,9.482h16.969v25.62h10.481v13.309H327.15v46.748c0,1.996,0.192,3.551,0.583,4.658
		c0.387,1.11,0.998,1.941,1.83,2.495c0.832,0.557,1.913,0.89,3.244,0.999c1.331,0.111,2.938,0.166,4.825,0.166v15.971h-6.987
		c-3.883,0-7.127-0.608-9.732-1.83c-2.607-1.219-4.687-2.771-6.239-4.658c-1.555-1.885-2.69-4.019-3.411-6.405
		c-0.723-2.383-1.081-4.684-1.081-6.903v-51.24h-8.484V35.103h8.484V9.482z"/>
	<path fill="#FFFFFF" d="M344.119,35.103h16.969v8.983c3.437-3.104,6.821-5.544,10.148-7.319c3.327-1.773,7.429-2.662,12.311-2.662
		v17.967c-1.664-0.665-3.384-0.998-5.157-0.998c-1.775,0-3.688,0.307-5.739,0.915c-2.054,0.611-3.938,1.638-5.657,3.078
		c-1.721,1.442-3.135,3.327-4.242,5.656c-1.11,2.329-1.664,5.214-1.664,8.65v50.075h-16.969V35.103z"/>
	<path fill="#FFFFFF" d="M405.838,83.681v11.479c0,2.662,0.749,4.716,2.246,6.155c1.497,1.443,3.52,2.163,6.072,2.163
		c3.216,0,5.35-0.941,6.405-2.828c1.053-1.885,1.689-3.77,1.913-5.656h16.969c0,3.551-0.582,6.878-1.747,9.981
		c-1.164,3.106-2.856,5.769-5.074,7.985c-2.22,2.329-4.881,4.159-7.985,5.49c-3.106,1.331-6.6,1.996-10.48,1.996
		c-5.215,0-9.706-1.107-13.476-3.327c-3.771-2.217-6.654-5.157-8.65-8.817c-1.222-2.217-2.054-4.768-2.496-7.652
		c-0.444-2.883-0.666-6.044-0.666-9.482V63.384c0-3.437,0.221-6.597,0.666-9.482c0.442-2.883,1.274-5.433,2.496-7.652
		c1.996-3.66,4.879-6.598,8.65-8.817c3.77-2.218,8.261-3.327,13.476-3.327c3.881,0,7.403,0.665,10.563,1.996
		c3.161,1.331,5.823,3.189,7.986,5.573c2.162,2.387,3.826,5.186,4.99,8.401c1.165,3.218,1.747,6.654,1.747,10.314v23.291H405.838z
		 M405.838,70.371h16.637v-9.648c0-3.216-0.749-5.628-2.246-7.237c-1.497-1.606-3.522-2.412-6.072-2.412
		c-2.553,0-4.575,0.806-6.072,2.412c-1.497,1.609-2.246,4.021-2.246,7.237V70.371z"/>
	<path fill="#FFFFFF" d="M482.698,58.726c-0.112-2.883-1.027-5.045-2.745-6.487c-1.721-1.44-3.688-2.163-5.906-2.163
		c-2.662,0-4.715,0.86-6.155,2.578c-1.442,1.722-2.163,3.689-2.163,5.906c0,1.555,0.388,3.078,1.165,4.575
		c0.774,1.497,2.771,2.856,5.989,4.075l9.981,3.993c6.321,2.44,10.673,5.769,13.06,9.981c2.384,4.217,3.576,8.817,3.576,13.809
		c0,3.551-0.639,6.85-1.913,9.898c-1.276,3.052-3.022,5.739-5.24,8.068c-2.22,2.329-4.882,4.159-7.985,5.49
		c-3.106,1.331-6.488,1.996-10.148,1.996c-3.327,0-6.487-0.556-9.482-1.663c-2.994-1.107-5.63-2.717-7.902-4.825
		c-2.273-2.105-4.133-4.741-5.573-7.902c-1.442-3.16-2.22-6.847-2.329-11.062h15.972c0.332,2.329,1.136,4.491,2.412,6.488
		c1.273,1.996,3.52,2.994,6.737,2.994c2.438,0,4.63-0.803,6.571-2.412c1.939-1.606,2.911-3.853,2.911-6.737
		c0-2.329-0.61-4.326-1.83-5.989c-1.222-1.664-3.438-3.104-6.654-4.326l-8.151-2.994c-5.323-1.996-9.512-4.962-12.561-8.9
		c-3.052-3.936-4.575-8.734-4.575-14.391c0-3.548,0.665-6.847,1.996-9.898c1.331-3.049,3.133-5.656,5.407-7.818
		c2.272-2.163,4.908-3.853,7.902-5.074c2.994-1.22,6.21-1.83,9.649-1.83c3.436,0,6.625,0.64,9.565,1.913
		c2.938,1.276,5.461,2.994,7.569,5.157c2.105,2.163,3.77,4.77,4.991,7.819c1.219,3.052,1.83,6.295,1.83,9.731H482.698z"/>
	<path fill="#FFFFFF" d="M541.255,58.726c-0.112-2.883-1.027-5.045-2.745-6.487c-1.721-1.44-3.688-2.163-5.906-2.163
		c-2.662,0-4.715,0.86-6.155,2.578c-1.442,1.722-2.163,3.689-2.163,5.906c0,1.555,0.388,3.078,1.165,4.575
		c0.774,1.497,2.771,2.856,5.989,4.075l9.981,3.993c6.321,2.44,10.673,5.769,13.06,9.981c2.384,4.217,3.576,8.817,3.576,13.809
		c0,3.551-0.639,6.85-1.913,9.898c-1.276,3.052-3.022,5.739-5.24,8.068c-2.22,2.329-4.882,4.159-7.985,5.49
		c-3.106,1.331-6.488,1.996-10.148,1.996c-3.327,0-6.487-0.556-9.482-1.663c-2.994-1.107-5.63-2.717-7.902-4.825
		c-2.274-2.105-4.133-4.741-5.573-7.902c-1.442-3.16-2.22-6.847-2.328-11.062h15.971c0.332,2.329,1.136,4.491,2.412,6.488
		c1.273,1.996,3.52,2.994,6.737,2.994c2.438,0,4.63-0.803,6.571-2.412c1.939-1.606,2.911-3.853,2.911-6.737
		c0-2.329-0.61-4.326-1.83-5.989c-1.222-1.664-3.438-3.104-6.654-4.326l-8.151-2.994c-5.323-1.996-9.512-4.962-12.561-8.9
		c-3.052-3.936-4.575-8.734-4.575-14.391c0-3.548,0.666-6.847,1.997-9.898c1.33-3.049,3.132-5.656,5.406-7.818
		c2.272-2.163,4.908-3.853,7.902-5.074c2.994-1.22,6.21-1.83,9.649-1.83c3.436,0,6.625,0.64,9.565,1.913
		c2.938,1.276,5.461,2.994,7.569,5.157c2.105,2.163,3.77,4.77,4.991,7.819c1.219,3.052,1.83,6.295,1.83,9.731H541.255z"/>
	<path fill="#FFFFFF" d="M623.936,92.997c0,3.659-0.694,7.153-2.079,10.48c-1.389,3.327-3.302,6.238-5.74,8.734
		c-2.44,2.495-5.297,4.491-8.567,5.988c-3.272,1.498-6.795,2.246-10.563,2.246c-3.219,0-6.488-0.444-9.815-1.331
		c-3.327-0.886-6.322-2.412-8.984-4.574c-2.661-2.163-4.853-5.018-6.571-8.568c-1.721-3.548-2.578-8.04-2.578-13.476V27.283
		c0-3.881,0.665-7.486,1.996-10.813s3.216-6.21,5.656-8.65c2.438-2.438,5.35-4.352,8.734-5.74C588.805,0.694,592.548,0,596.653,0
		c3.881,0,7.486,0.694,10.813,2.079c3.327,1.389,6.21,3.328,8.65,5.823c2.438,2.495,4.352,5.49,5.74,8.983
		c1.385,3.494,2.079,7.294,2.079,11.396v6.655h-16.969V29.28c0-3.328-0.943-6.211-2.828-8.651c-1.888-2.438-4.438-3.66-7.652-3.66
		c-4.217,0-7.017,1.305-8.401,3.91c-1.389,2.606-2.08,5.905-2.08,9.898v60.556c0,3.439,0.749,6.321,2.246,8.65
		s4.185,3.494,8.068,3.494c1.107,0,2.301-0.192,3.577-0.582c1.273-0.388,2.438-1.024,3.493-1.913
		c1.053-0.887,1.913-2.105,2.579-3.66c0.665-1.552,0.998-3.494,0.998-5.823v-5.822h16.969V92.997z"/>
	<path fill="#FFFFFF" d="M668.853,110.798h-0.332c-2.22,3.105-4.466,5.489-6.738,7.153c-2.274,1.663-5.464,2.495-9.565,2.495
		c-1.996,0-4.05-0.307-6.155-0.915c-2.108-0.608-4.076-1.718-5.906-3.327c-1.83-1.606-3.327-3.881-4.491-6.82
		c-1.165-2.938-1.747-6.738-1.747-11.396c0-4.768,0.387-8.955,1.164-12.561c0.775-3.603,2.189-6.597,4.242-8.983
		c2.052-2.384,4.796-4.159,8.235-5.323c3.437-1.165,7.819-1.747,13.143-1.747c1.219,0,2.438,0.058,3.66,0.166
		c1.219,0.112,2.716,0.224,4.491,0.333v-8.817c0-2.883-0.61-5.266-1.829-7.153c-1.223-1.885-3.439-2.828-6.655-2.828
		c-2.22,0-4.242,0.723-6.072,2.163c-1.83,1.442-3.022,3.551-3.576,6.321h-16.47c0.554-7.652,3.104-13.751,7.652-18.3
		c2.217-2.217,4.879-3.964,7.985-5.24c3.104-1.273,6.598-1.913,10.48-1.913c3.549,0,6.876,0.556,9.982,1.663
		c3.104,1.11,5.794,2.774,8.068,4.991c2.271,2.22,4.076,4.991,5.406,8.318c1.331,3.327,1.997,7.211,1.997,11.646v58.726h-16.97
		V110.798z M668.853,83.182c-1.887-0.333-3.438-0.499-4.657-0.499c-3.66,0-6.795,0.86-9.4,2.578
		c-2.606,1.721-3.909,4.854-3.909,9.399c0,3.218,0.774,5.823,2.329,7.819c1.552,1.996,3.715,2.994,6.488,2.994
		c2.883,0,5.129-0.94,6.737-2.828c1.606-1.885,2.412-4.546,2.412-7.985V83.182z"/>
	<path fill="#FFFFFF" d="M697.3,0.998h16.969v94.66c0,3.219,0.582,5.407,1.747,6.571c1.164,1.165,3.353,1.913,6.571,2.246v15.971
		c-3.884,0-7.403-0.307-10.564-0.915s-5.822-1.772-7.985-3.493c-2.162-1.719-3.826-4.131-4.99-7.237
		c-1.165-3.104-1.747-7.096-1.747-11.978V0.998z"/>
	<path fill="#FFFFFF" d="M728.243,0.998h16.969v94.66c0,3.219,0.582,5.407,1.747,6.571c1.164,1.165,3.353,1.913,6.571,2.246v15.971
		c-3.884,0-7.403-0.307-10.564-0.915s-5.822-1.772-7.985-3.493c-2.162-1.719-3.826-4.131-4.99-7.237
		c-1.165-3.104-1.747-7.096-1.747-11.978V0.998z"/>
</g>
</svg>
